<svg xmlns="http://www.w3.org/2000/svg" width="35" height="33" viewBox="0 0 35 33">
  <g fill="none" fill-rule="evenodd" stroke="#FFFFFF" stroke-linecap="round" stroke-linejoin="round">
    <path stroke-width=".866" d="M23.5 9.74a12.01 12.01 0 0 1-12 20.8m2.94-22.02c2.95-.77 6.2-.43 9.06 1.22m-12 20.8a11.98 11.98 0 0 1-5.68-7.6M.43 10.28l3.38 1.95m3.84-9.17L9.6 6.45M17.5.43v3.9m9.85-1.26L25.4 6.45m9.16 3.84l-3.38 1.95"/>
    <path stroke-width=".866" d="M11.5 30.54c-2.57-1.48-1.96-7.34 1.36-13.08 3.32-5.74 8.08-9.2 10.64-7.72"/>
    <path stroke-width=".866" d="M27.84 26.23c-2.09 3.63-8.44 3.88-14.19.56-5.74-3.31-8.7-8.94-6.6-12.57 1.21-2.1 3.86-3.07 7-2.86"/>
  </g>
</svg>
